<?xml version="1.0" encoding="iso-8859-1"?>
<!-- Generator: Adobe Illustrator 19.0.0, SVG Export Plug-In . SVG Version: 6.00 Build 0)  -->
<svg version="1.1" id="Layer_1" xmlns="http://www.w3.org/2000/svg" xmlns:xlink="http://www.w3.org/1999/xlink" x="0px" y="0px"
	 viewBox="0 0 512.001 512.001" style="enable-background:new 0 0 512.001 512.001;" xml:space="preserve">
<path style="fill:#5D9BEB;" d="M512.001,256.006c0,141.395-114.606,255.998-255.996,255.994
	C114.606,512.004,0.001,397.402,0.001,256.006C-0.007,114.61,114.606,0,256.005,0C397.395,0,512.001,114.614,512.001,256.006z"/>
<path style="fill:#4988DB;" d="M507.827,302.241c-34.142-34.192-192.45-192.407-192.94-192.894
	c-14.813-15.511-35.534-25.028-58.831-25.028c-46.054,0-82.134,37.097-82.134,84.453v35.014h-56.431
	c-10.594,0-18.266,9.548-19.286,18.397L76.98,405.951c-0.634,5.465,1.173,11.037,4.958,15.286c0.366,0.412,0.806,0.721,1.199,1.097
	c0.099,0.117,0.164,0.255,0.267,0.37c0.365,0.409,45.63,45.617,45.733,45.733c6.341,7.137,13.233,13.794,20.228,20.356
	c32.466,14.894,68.578,23.209,106.639,23.207C381.608,512.003,486.065,421.562,507.827,302.241z"/>
<path style="fill:#F4F6F9;" d="M435.025,406.67l-21.219-184.533c-1.021-8.843-8.689-18.388-19.281-18.388H338.11v-35.004
	c0-47.342-36.068-84.427-82.109-84.427s-82.109,37.085-82.109,84.427v35.004h-56.414c-10.592,0-18.26,9.546-19.281,18.391
	L76.98,405.854c-0.635,5.464,1.173,11.033,4.957,15.282c3.703,4.159,8.923,6.546,14.324,6.546h319.484
	c5.628,0,10.971-2.377,14.667-6.516C433.946,417.185,435.63,411.904,435.025,406.67z M188.822,168.745
	c0-38.97,29.508-69.498,67.18-69.498s67.18,30.528,67.18,69.498v35.004h-8.995c-5.919,0-10.212,4.023-13.406,7.017
	c-12.625,11.783-28.531,18.271-44.78,18.271c-15.971,0-31.87-6.634-44.78-18.675c-2.304-2.147-7.086-6.611-13.406-6.611h-8.995
	v-35.005H188.822z M113.027,223.857c0.285-2.467,2.617-5.179,4.454-5.179l56.414-0.016v22.409h-14.929
	c-4.126,0-7.465,3.342-7.465,7.465v44.787c0,4.123,3.339,7.465,7.465,7.465h37.323c4.126,0,7.465-3.342,7.465-7.465v-44.787
	c0-4.123-3.339-7.465-7.465-7.465h-7.465v-22.414l8.748-0.002c0.342,0.087,1.247,0.55,3.462,2.617
	c15.687,14.634,35.209,22.692,54.97,22.692c20.038,0,39.561-7.917,55.342-22.638c0.911-0.853,2.603-2.442,2.843-2.65h8.995v22.394
	h-7.465c-4.126,0-7.465,3.342-7.465,7.465v44.787c0,4.123,3.339,7.465,7.465,7.465h37.323c4.126,0,7.465-3.342,7.465-7.465v-44.787
	c0-4.123-3.339-7.465-7.465-7.465h-14.929v-22.393h56.414c1.837,0,4.17,2.711,4.454,5.172l16.573,144.117H96.38L113.027,223.857z
	 M188.822,256v29.858h-22.394V256H188.822z M345.576,256v29.858h-22.394V256H345.576z M420.198,408.383
	c0.153,1.316-0.43,2.278-0.941,2.853c-0.86,0.962-2.135,1.516-3.514,1.516H96.261c-1.567,0-2.66-0.97-3.179-1.546
	c-0.941-1.057-1.414-2.413-1.276-3.637l2.85-24.675h322.611l2.93,25.481V408.383z"/>
<g>
</g>
<g>
</g>
<g>
</g>
<g>
</g>
<g>
</g>
<g>
</g>
<g>
</g>
<g>
</g>
<g>
</g>
<g>
</g>
<g>
</g>
<g>
</g>
<g>
</g>
<g>
</g>
<g>
</g>
</svg>
